<mxfile host="app.diagrams.net" modified="2023-07-13T10:11:33.506Z" agent="Mozilla/5.0 (Windows NT 10.0; Win64; x64) AppleWebKit/537.36 (KHTML, like Gecko) Chrome/114.0.0.0 Safari/537.36" etag="JRSMnoNePXjxhGANSnEP" version="21.6.1" type="github">
  <diagram name="第 1 页" id="Q-ji6gCEQnSTjhMWAsGa">
    <mxGraphModel dx="1434" dy="1877" grid="1" gridSize="10" guides="1" tooltips="1" connect="1" arrows="1" fold="1" page="1" pageScale="1" pageWidth="827" pageHeight="1169" math="0" shadow="0">
      <root>
        <mxCell id="0" />
        <mxCell id="1" parent="0" />
        <mxCell id="ZOv8OPot-Fxsu8qrR7Fg-3" value="" style="edgeStyle=orthogonalEdgeStyle;rounded=0;orthogonalLoop=1;jettySize=auto;html=1;" edge="1" parent="1" source="ZOv8OPot-Fxsu8qrR7Fg-1" target="ZOv8OPot-Fxsu8qrR7Fg-2">
          <mxGeometry relative="1" as="geometry" />
        </mxCell>
        <mxCell id="ZOv8OPot-Fxsu8qrR7Fg-19" style="edgeStyle=orthogonalEdgeStyle;rounded=0;orthogonalLoop=1;jettySize=auto;html=1;exitX=1;exitY=0.5;exitDx=0;exitDy=0;entryX=0.25;entryY=0;entryDx=0;entryDy=0;curved=1;" edge="1" parent="1" source="ZOv8OPot-Fxsu8qrR7Fg-1" target="ZOv8OPot-Fxsu8qrR7Fg-18">
          <mxGeometry relative="1" as="geometry" />
        </mxCell>
        <mxCell id="ZOv8OPot-Fxsu8qrR7Fg-20" value="&lt;b&gt;&lt;font style=&quot;font-size: 14px;&quot;&gt;Import注解为源头，进行指定类导入&lt;/font&gt;&lt;/b&gt;" style="edgeLabel;html=1;align=center;verticalAlign=middle;resizable=0;points=[];" vertex="1" connectable="0" parent="ZOv8OPot-Fxsu8qrR7Fg-19">
          <mxGeometry x="-0.1473" y="-8" relative="1" as="geometry">
            <mxPoint x="43" y="2" as="offset" />
          </mxGeometry>
        </mxCell>
        <mxCell id="ZOv8OPot-Fxsu8qrR7Fg-1" value="&lt;b&gt;&lt;font style=&quot;font-size: 15px;&quot;&gt;Spring工程启动&lt;/font&gt;&lt;/b&gt;" style="rounded=1;whiteSpace=wrap;html=1;fillColor=#d5e8d4;strokeColor=#82b366;" vertex="1" parent="1">
          <mxGeometry x="250" y="-30" width="120" height="60" as="geometry" />
        </mxCell>
        <mxCell id="ZOv8OPot-Fxsu8qrR7Fg-5" value="" style="edgeStyle=orthogonalEdgeStyle;rounded=0;orthogonalLoop=1;jettySize=auto;html=1;" edge="1" parent="1" source="ZOv8OPot-Fxsu8qrR7Fg-2" target="ZOv8OPot-Fxsu8qrR7Fg-4">
          <mxGeometry relative="1" as="geometry" />
        </mxCell>
        <mxCell id="ZOv8OPot-Fxsu8qrR7Fg-9" style="edgeStyle=orthogonalEdgeStyle;rounded=0;orthogonalLoop=1;jettySize=auto;html=1;exitX=1;exitY=0.5;exitDx=0;exitDy=0;entryX=0.25;entryY=0;entryDx=0;entryDy=0;curved=1;" edge="1" parent="1" source="ZOv8OPot-Fxsu8qrR7Fg-2" target="ZOv8OPot-Fxsu8qrR7Fg-8">
          <mxGeometry relative="1" as="geometry" />
        </mxCell>
        <mxCell id="ZOv8OPot-Fxsu8qrR7Fg-11" value="&lt;b&gt;&lt;font style=&quot;font-size: 14px;&quot;&gt;工厂后置处理器&lt;/font&gt;&lt;/b&gt;" style="edgeLabel;html=1;align=center;verticalAlign=middle;resizable=0;points=[];" vertex="1" connectable="0" parent="ZOv8OPot-Fxsu8qrR7Fg-9">
          <mxGeometry x="-0.1325" y="-2" relative="1" as="geometry">
            <mxPoint as="offset" />
          </mxGeometry>
        </mxCell>
        <mxCell id="ZOv8OPot-Fxsu8qrR7Fg-2" value="&lt;b&gt;&lt;font style=&quot;font-size: 14px;&quot;&gt;容器建立完成&lt;/font&gt;&lt;/b&gt;" style="whiteSpace=wrap;html=1;fillColor=#d5e8d4;strokeColor=#82b366;rounded=1;" vertex="1" parent="1">
          <mxGeometry x="250" y="200" width="120" height="60" as="geometry" />
        </mxCell>
        <mxCell id="ZOv8OPot-Fxsu8qrR7Fg-13" value="" style="edgeStyle=orthogonalEdgeStyle;rounded=0;orthogonalLoop=1;jettySize=auto;html=1;" edge="1" parent="1" source="ZOv8OPot-Fxsu8qrR7Fg-4">
          <mxGeometry relative="1" as="geometry">
            <mxPoint x="310" y="570" as="targetPoint" />
          </mxGeometry>
        </mxCell>
        <mxCell id="ZOv8OPot-Fxsu8qrR7Fg-15" style="edgeStyle=orthogonalEdgeStyle;rounded=0;orthogonalLoop=1;jettySize=auto;html=1;exitX=1;exitY=0.5;exitDx=0;exitDy=0;entryX=0.25;entryY=0;entryDx=0;entryDy=0;curved=1;" edge="1" parent="1" source="ZOv8OPot-Fxsu8qrR7Fg-4" target="ZOv8OPot-Fxsu8qrR7Fg-14">
          <mxGeometry relative="1" as="geometry" />
        </mxCell>
        <mxCell id="ZOv8OPot-Fxsu8qrR7Fg-17" value="&lt;font style=&quot;font-size: 14px;&quot;&gt;&lt;b&gt;容器刷新监听器&lt;/b&gt;&lt;/font&gt;" style="edgeLabel;html=1;align=center;verticalAlign=middle;resizable=0;points=[];" vertex="1" connectable="0" parent="ZOv8OPot-Fxsu8qrR7Fg-15">
          <mxGeometry x="-0.306" y="-3" relative="1" as="geometry">
            <mxPoint as="offset" />
          </mxGeometry>
        </mxCell>
        <mxCell id="ZOv8OPot-Fxsu8qrR7Fg-4" value="&lt;b&gt;&lt;font style=&quot;font-size: 14px;&quot;&gt;容器刷新完成&lt;/font&gt;&lt;/b&gt;" style="whiteSpace=wrap;html=1;fillColor=#d5e8d4;strokeColor=#82b366;rounded=1;" vertex="1" parent="1">
          <mxGeometry x="250" y="390" width="120" height="60" as="geometry" />
        </mxCell>
        <mxCell id="ZOv8OPot-Fxsu8qrR7Fg-7" value="&lt;b&gt;&lt;font color=&quot;#ff0000&quot; style=&quot;font-size: 14px;&quot;&gt;Dubbo的操作&lt;/font&gt;&lt;/b&gt;" style="text;html=1;strokeColor=none;fillColor=none;align=center;verticalAlign=middle;whiteSpace=wrap;rounded=0;" vertex="1" parent="1">
          <mxGeometry x="500" y="-80" width="170" height="30" as="geometry" />
        </mxCell>
        <mxCell id="ZOv8OPot-Fxsu8qrR7Fg-10" style="edgeStyle=orthogonalEdgeStyle;rounded=0;orthogonalLoop=1;jettySize=auto;html=1;exitX=0.25;exitY=1;exitDx=0;exitDy=0;curved=1;" edge="1" parent="1" source="ZOv8OPot-Fxsu8qrR7Fg-8">
          <mxGeometry relative="1" as="geometry">
            <mxPoint x="310" y="330" as="targetPoint" />
          </mxGeometry>
        </mxCell>
        <mxCell id="ZOv8OPot-Fxsu8qrR7Fg-8" value="&lt;b&gt;&lt;font style=&quot;font-size: 14px;&quot;&gt;扫描开发者代码，找到所有@DubboService注解的类&lt;br&gt;将其Bean定义注入Spring容器&lt;/font&gt;&lt;/b&gt;" style="rounded=1;whiteSpace=wrap;html=1;fillColor=#dae8fc;strokeColor=#6c8ebf;" vertex="1" parent="1">
          <mxGeometry x="490" y="260" width="230" height="100" as="geometry" />
        </mxCell>
        <mxCell id="ZOv8OPot-Fxsu8qrR7Fg-16" style="edgeStyle=orthogonalEdgeStyle;rounded=0;orthogonalLoop=1;jettySize=auto;html=1;exitX=0.25;exitY=1;exitDx=0;exitDy=0;curved=1;" edge="1" parent="1" source="ZOv8OPot-Fxsu8qrR7Fg-14">
          <mxGeometry relative="1" as="geometry">
            <mxPoint x="310" y="490" as="targetPoint" />
          </mxGeometry>
        </mxCell>
        <mxCell id="ZOv8OPot-Fxsu8qrR7Fg-14" value="&lt;span style=&quot;font-size: 14px;&quot;&gt;&lt;b&gt;执行服务发布&lt;/b&gt;&lt;/span&gt;" style="rounded=1;whiteSpace=wrap;html=1;fillColor=#dae8fc;strokeColor=#6c8ebf;" vertex="1" parent="1">
          <mxGeometry x="490" y="450" width="230" height="60" as="geometry" />
        </mxCell>
        <mxCell id="ZOv8OPot-Fxsu8qrR7Fg-21" style="edgeStyle=orthogonalEdgeStyle;rounded=0;orthogonalLoop=1;jettySize=auto;html=1;exitX=0;exitY=0.5;exitDx=0;exitDy=0;curved=1;" edge="1" parent="1" source="ZOv8OPot-Fxsu8qrR7Fg-18">
          <mxGeometry relative="1" as="geometry">
            <mxPoint x="310" y="100" as="targetPoint" />
          </mxGeometry>
        </mxCell>
        <mxCell id="ZOv8OPot-Fxsu8qrR7Fg-18" value="&lt;span style=&quot;font-size: 14px;&quot;&gt;&lt;b&gt;向Spring容器注入一些必备的Dubbo配置及组件&lt;br&gt;包括下面的&lt;br&gt;后置处理器及监听器&lt;br&gt;&lt;/b&gt;&lt;/span&gt;" style="rounded=1;whiteSpace=wrap;html=1;fillColor=#dae8fc;strokeColor=#6c8ebf;" vertex="1" parent="1">
          <mxGeometry x="490" y="80" width="230" height="100" as="geometry" />
        </mxCell>
        <mxCell id="ZOv8OPot-Fxsu8qrR7Fg-22" value="&lt;b&gt;&lt;font color=&quot;#ff0000&quot; style=&quot;font-size: 14px;&quot;&gt;Spring启动流程&lt;/font&gt;&lt;/b&gt;" style="text;html=1;strokeColor=none;fillColor=none;align=center;verticalAlign=middle;whiteSpace=wrap;rounded=0;" vertex="1" parent="1">
          <mxGeometry x="225" y="-80" width="170" height="30" as="geometry" />
        </mxCell>
      </root>
    </mxGraphModel>
  </diagram>
</mxfile>
